{
  "accessors": [
    {
      "bufferView": 2,
      "componentType": 5126,
      "count": 65532,
      "max": [
        2.1108860969543457,
        2.1561200618743896,
        8.384602546691895
      ],
      "min": [
        -1.9239439964294434,
        -1.4855509996414185,
        0.054211001843214035
      ],
      "type": "VEC3"
    },
    {
      "bufferView": 2,
      "byteOffset": 786384,
      "componentType": 5126,
      "count": 65532,
      "max": [
        0.9999796152114868,
        0.9999990463256836,
        0.9999958276748657
      ],
      "min": [
        -0.9999978542327881,
        -0.9999756813049316,
        -0.9999939203262329
      ],
      "type": "VEC3"
    },
    {
      "bufferView": 3,
      "componentType": 5126,
      "count": 65532,
      "max": [
        0.9998226761817932,
        0.9999980330467224,
        0.9998776316642761,
        1.0
      ],
      "min": [
        -0.9999866485595703,
        -0.9999767541885376,
        -0.999998152256012,
        -1.0
      ],
      "type": "VEC4"
    },
    {
      "bufferView": 1,
      "componentType": 5126,
      "count": 65532,
      "max": [
        0.9966959953308105,
        0.9999979734420776
      ],
      "min": [
        7.79999973019585e-05,
        6.800000119255856e-05
      ],
      "type": "VEC2"
    },
    {
      "bufferView": 0,
      "componentType": 5125,
      "count": 357249,
      "type": "SCALAR"
    },
    {
      "bufferView": 2,
      "byteOffset": 1572768,
      "componentType": 5126,
      "count": 5134,
      "max": [
        1.534085988998413,
        1.1978139877319336,
        7.0074591636657715
      ],
      "min": [
        -1.862542986869812,
        -1.1132140159606934,
        2.8885130882263184
      ],
      "type": "VEC3"
    },
    {
      "bufferView": 2,
      "byteOffset": 1634376,
      "componentType": 5126,
      "count": 5134,
      "max": [
        0.9980286955833435,
        0.9992604851722717,
        0.9999158382415771
      ],
      "min": [
        -0.9984138011932373,
        -0.9991782903671265,
        -0.9875999093055725
      ],
      "type": "VEC3"
    },
    {
      "bufferView": 3,
      "byteOffset": 1048512,
      "componentType": 5126,
      "count": 5134,
      "max": [
        0.993697464466095,
        0.9986594915390015,
        0.9998816251754761,
        1.0
      ],
      "min": [
        -0.9976436495780945,
        -0.999722957611084,
        -0.9999879598617554,
        -1.0
      ],
      "type": "VEC4"
    },
    {
      "bufferView": 1,
      "byteOffset": 524256,
      "componentType": 5126,
      "count": 5134,
      "max": [
        0.9966380000114441,
        0.9999719858169556
      ],
      "min": [
        0.006095999851822853,
        0.002644999884068966
      ],
      "type": "VEC2"
    },
    {
      "bufferView": 0,
      "byteOffset": 1428996,
      "componentType": 5125,
      "count": 21093,
      "type": "SCALAR"
    }
  ],
  "asset": {
    "extras": {
      "author": "Lassi Kaukonen (https://sketchfab.com/thesidekick)",
      "license": "CC-BY-4.0 (http://creativecommons.org/licenses/by/4.0/)",
      "source": "https://sketchfab.com/3d-models/aloe-plant-abacab4588fe48108e2edba18b5a8db0",
      "title": "Aloe Plant"
    },
    "generator": "Sketchfab-12.68.0",
    "version": "2.0"
  },
  "bufferViews": [
    {
      "buffer": 0,
      "byteLength": 1513368,
      "name": "floatBufferViews",
      "target": 34963
    },
    {
      "buffer": 0,
      "byteLength": 565328,
      "byteOffset": 1513368,
      "byteStride": 8,
      "name": "floatBufferViews",
      "target": 34962
    },
    {
      "buffer": 0,
      "byteLength": 1695984,
      "byteOffset": 2078696,
      "byteStride": 12,
      "name": "floatBufferViews",
      "target": 34962
    },
    {
      "buffer": 0,
      "byteLength": 1130656,
      "byteOffset": 3774680,
      "byteStride": 16,
      "name": "floatBufferViews",
      "target": 34962
    }
  ],
  "buffers": [
    {
      "byteLength": 4905336,
      "uri": "scene.bin"
    }
  ],
  "images": [
    {
      "uri": "textures/Aloe_plant_baseColor.jpeg"
    },
    {
      "uri": "textures/Aloe_plant_metallicRoughness.png"
    },
    {
      "uri": "textures/Aloe_plant_normal.png"
    }
  ],
  "materials": [
    {
      "doubleSided": true,
      "name": "Aloe_plant",
      "normalTexture": {
        "index": 2
      },
      "occlusionTexture": {
        "index": 1
      },
      "pbrMetallicRoughness": {
        "baseColorTexture": {
          "index": 0
        },
        "metallicFactor": 0.0,
        "metallicRoughnessTexture": {
          "index": 1
        },
        "roughnessFactor": 0.6804924242424243
      }
    }
  ],
  "meshes": [
    {
      "name": "Object_0",
      "primitives": [
        {
          "attributes": {
            "NORMAL": 1,
            "POSITION": 0,
            "TANGENT": 2,
            "TEXCOORD_0": 3
          },
          "indices": 4,
          "material": 0,
          "mode": 4
        }
      ]
    },
    {
      "name": "Object_1",
      "primitives": [
        {
          "attributes": {
            "NORMAL": 6,
            "POSITION": 5,
            "TANGENT": 7,
            "TEXCOORD_0": 8
          },
          "indices": 9,
          "material": 0,
          "mode": 4
        }
      ]
    }
  ],
  "nodes": [
    {
      "children": [
        1
      ],
      "matrix": [
        1.0,
        0.0,
        0.0,
        0.0,
        0.0,
        2.220446049250313e-16,
        -1.0,
        0.0,
        0.0,
        1.0,
        2.220446049250313e-16,
        0.0,
        0.0,
        0.0,
        0.0,
        1.0
      ],
      "name": "Sketchfab_model"
    },
    {
      "children": [
        2,
        3
      ],
      "name": "Aloe_plant_SF.obj.cleaner.materialmerger.gles"
    },
    {
      "mesh": 0,
      "name": "Object_2"
    },
    {
      "mesh": 1,
      "name": "Object_3"
    }
  ],
  "samplers": [
    {
      "magFilter": 9729,
      "minFilter": 9987,
      "wrapS": 10497,
      "wrapT": 10497
    }
  ],
  "scene": 0,
  "scenes": [
    {
      "name": "Sketchfab_Scene",
      "nodes": [
        0
      ]
    }
  ],
  "textures": [
    {
      "sampler": 0,
      "source": 0
    },
    {
      "sampler": 0,
      "source": 1
    },
    {
      "sampler": 0,
      "source": 2
    }
  ]
}
